<svg version="1.2" baseProfile="tiny-ps" xmlns="http://www.w3.org/2000/svg" viewBox="0 0 64 64" width="64" height="64">
	<title>New Project</title>
	<style>
		tspan { white-space:pre }
		.shp0 { fill: #dcdcdc;stroke: #000000;stroke-width: 4.4 } 
	</style>
	<path id="Layer 1" class="shp0" d="M59.53 5.61C58.49 5.18 57.61 5.35 56.88 6.13L51.98 11.01C49.28 8.46 46.2 6.49 42.74 5.1C39.28 3.7 35.7 3 32 3C28.07 3 24.32 3.77 20.75 5.3C17.17 6.84 14.09 8.9 11.5 11.5C8.9 14.09 6.84 17.17 5.3 20.75C3.77 24.32 3 28.07 3 32C3 35.93 3.77 39.68 5.3 43.25C6.84 46.83 8.9 49.91 11.5 52.5C14.09 55.1 17.17 57.16 20.75 58.7C24.32 60.23 28.07 61 32 61C36.33 61 40.45 60.09 44.35 58.26C48.25 56.44 51.57 53.86 54.32 50.54C54.52 50.29 54.61 50.01 54.6 49.69C54.59 49.38 54.47 49.12 54.24 48.92L49.07 43.71C48.79 43.48 48.48 43.37 48.12 43.37C47.72 43.42 47.43 43.57 47.26 43.82C45.42 46.21 43.16 48.06 40.5 49.37C37.83 50.68 35 51.33 32 51.33C29.38 51.33 26.88 50.82 24.5 49.8C22.13 48.78 20.07 47.41 18.33 45.67C16.59 43.93 15.22 41.87 14.2 39.5C13.18 37.12 12.67 34.62 12.67 32C12.67 29.38 13.18 26.88 14.2 24.5C15.22 22.13 16.59 20.07 18.33 18.33C20.07 16.59 22.13 15.22 24.5 14.2C26.88 13.18 29.38 12.67 32 12.67C37.06 12.67 41.45 14.39 45.18 17.84L39.97 23.05C39.19 23.81 39.01 24.67 39.44 25.66C39.87 26.66 40.61 27.17 41.67 27.17L58.58 27.17C59.24 27.17 59.8 26.93 60.28 26.45C60.76 25.97 61 25.4 61 24.75L61 7.83C61 6.78 60.51 6.03 59.53 5.61L59.53 5.61Z" />
</svg>