<svg version="1.2" baseProfile="tiny-ps" xmlns="http://www.w3.org/2000/svg" viewBox="0 0 64 64" width="64" height="64">
	<title>New Project</title>
	<style>
		tspan { white-space:pre }
		.shp0 { fill: #000000;stroke: #000000;stroke-width: 2 } 
		.shp1 { fill: #ffff00;stroke: #000000;stroke-width: 3 } 
	</style>
	<path id="Layer 2" class="shp0" d="M44.69 51.57L32 44.77L19.28 51.57L21.74 37.19L11.44 27.05L25.64 24.93L32 11.89L38.36 24.93L52.56 27.05L42.26 37.19L44.69 51.57ZM58.12 23.43L41.22 20.94L33.65 5.4C33.22 4.47 32.67 4 32 4C31.33 4 30.78 4.47 30.35 5.4L22.78 20.94L5.88 23.43C4.63 23.64 4 24.16 4 25C4 25.48 4.28 26.03 4.84 26.64L17.09 38.73L14.2 55.8C14.15 56.12 14.13 56.35 14.13 56.49C14.13 56.96 14.25 57.37 14.48 57.7C14.72 58.03 15.07 58.19 15.54 58.19C15.95 58.19 16.4 58.06 16.89 57.78L32 49.72L47.11 57.78C47.58 58.06 48.03 58.19 48.46 58.19C49.38 58.19 49.84 57.62 49.84 56.49C49.84 56.19 49.82 55.96 49.8 55.8L46.91 38.73L59.13 26.64C59.71 26.05 60 25.5 60 25C60 24.16 59.37 23.64 58.12 23.43L58.12 23.43Z" />
	<path id="Layer 3" class="shp1" d="M58.12 23.43L41.22 20.94L33.65 5.4C33.22 4.47 32.67 4 32 4C31.33 4 30.78 4.47 30.35 5.4L22.78 20.94L5.88 23.43C4.63 23.64 4 24.16 4 25C4 25.48 4.28 26.03 4.84 26.64L17.09 38.73L14.2 55.8C14.15 56.12 14.13 56.35 14.13 56.49C14.13 56.96 14.25 57.37 14.48 57.7C14.72 58.03 15.07 58.19 15.54 58.19C15.95 58.19 16.4 58.06 16.89 57.78L32 49.72L47.11 57.78C47.58 58.06 48.03 58.19 48.46 58.19C48.91 58.19 49.25 58.03 49.48 57.7C49.72 57.37 49.84 56.96 49.84 56.49C49.84 56.19 49.82 55.96 49.8 55.8L46.91 38.73L59.13 26.64C59.71 26.05 60 25.5 60 25C60 24.16 59.37 23.64 58.12 23.43L58.12 23.43Z" />
</svg>