<svg version="1.2" baseProfile="tiny-ps" xmlns="http://www.w3.org/2000/svg" viewBox="0 0 64 64" width="64" height="64">
	<title>New Project</title>
	<style>
		tspan { white-space:pre }
		.shp0 { fill: #ff0000;stroke: #000000;stroke-width: 3 } 
	</style>
	<path id="Layer 4" class="shp0" d="M60.59 6.58C60.4 6.39 42.21 14 42.21 14C41.78 14 41.48 14.21 41.31 14.62C41.14 15.03 41.22 15.4 41.54 15.74L45.2 19.57L34.36 37.52C34.36 37.52 20.57 27.14 20.3 27.14C20.04 27.14 3.61 55.92 3.61 55.92L9.45 57.71L21.62 36.48C21.62 36.48 34.95 46.01 35.21 46.01C35.47 46.01 51.02 25.64 51.02 25.64L54.68 29.47C55 29.81 55.36 29.89 55.75 29.71C56.15 29.53 56.34 29.22 56.34 28.77C56.34 28.77 60.77 6.77 60.59 6.58Z" />
</svg>