<svg version="1.2" baseProfile="tiny-ps" xmlns="http://www.w3.org/2000/svg" viewBox="0 0 64 64" width="64" height="64">
	<title>New Project</title>
	<style>
		tspan { white-space:pre }
		.shp0 { fill: #ffffff;stroke: #808080;stroke-width: 1.1 } 
	</style>
	<path id="Layer 5" class="shp0" d="M49.79 22.36C51.62 25.62 52.54 29.18 52.54 33.04C52.54 36.89 51.62 40.45 49.79 43.71C47.95 46.97 45.46 49.55 42.31 51.46C39.16 53.36 35.73 54.31 32 54.31C28.27 54.31 24.84 53.36 21.69 51.46C18.54 49.55 16.05 46.97 14.21 43.71C12.38 40.45 11.46 36.89 11.46 33.04C11.46 29.18 12.38 25.62 14.21 22.36C16.05 19.1 18.54 16.52 21.69 14.62C24.84 12.71 28.27 11.76 32 11.76C35.73 11.76 39.16 12.71 42.31 14.62C45.46 16.52 47.95 19.1 49.79 22.36ZM46.56 7.03C42.11 4.34 37.26 3 32 3C26.74 3 21.89 4.34 17.44 7.03C13 9.71 9.48 13.36 6.89 17.96C4.3 22.56 3 27.59 3 33.04C3 38.49 4.3 43.51 6.89 48.11C9.48 52.71 13 56.36 17.44 59.04C21.89 61.73 26.74 63.07 32 63.07C37.26 63.07 42.11 61.73 46.56 59.04C51 56.36 54.52 52.71 57.11 48.11C59.7 43.51 61 38.49 61 33.04C61 27.59 59.7 22.56 57.11 17.96C54.52 13.36 51 9.71 46.56 7.03Z" />
</svg>